<mxfile host="app.diagrams.net" agent="Mozilla/5.0 (Windows NT 10.0; Win64; x64) AppleWebKit/537.36 (KHTML, like Gecko) Chrome/133.0.0.0 Safari/537.36 Edg/133.0.0.0" version="26.1.0">
  <diagram id="C5RBs43oDa-KdzZeNtuy" name="Page-1">
    <mxGraphModel dx="949" dy="1276" grid="1" gridSize="10" guides="1" tooltips="1" connect="1" arrows="1" fold="1" page="1" pageScale="1" pageWidth="827" pageHeight="1169" math="0" shadow="0">
      <root>
        <mxCell id="WIyWlLk6GJQsqaUBKTNV-0" />
        <mxCell id="WIyWlLk6GJQsqaUBKTNV-1" parent="WIyWlLk6GJQsqaUBKTNV-0" />
        <mxCell id="znTaWi1RVM_R-WTAlIB3-2" style="edgeStyle=orthogonalEdgeStyle;rounded=0;orthogonalLoop=1;jettySize=auto;html=1;entryX=0.5;entryY=0;entryDx=0;entryDy=0;" edge="1" parent="WIyWlLk6GJQsqaUBKTNV-1" source="znTaWi1RVM_R-WTAlIB3-0" target="znTaWi1RVM_R-WTAlIB3-1">
          <mxGeometry relative="1" as="geometry" />
        </mxCell>
        <mxCell id="znTaWi1RVM_R-WTAlIB3-0" value="DeleteElement&lt;div&gt;Начало&lt;/div&gt;" style="strokeWidth=2;html=1;shape=mxgraph.flowchart.terminator;whiteSpace=wrap;" vertex="1" parent="WIyWlLk6GJQsqaUBKTNV-1">
          <mxGeometry x="160" y="40" width="160" height="40" as="geometry" />
        </mxCell>
        <mxCell id="znTaWi1RVM_R-WTAlIB3-4" style="edgeStyle=orthogonalEdgeStyle;rounded=0;orthogonalLoop=1;jettySize=auto;html=1;entryX=0.5;entryY=0;entryDx=0;entryDy=0;" edge="1" parent="WIyWlLk6GJQsqaUBKTNV-1" source="znTaWi1RVM_R-WTAlIB3-1" target="znTaWi1RVM_R-WTAlIB3-3">
          <mxGeometry relative="1" as="geometry" />
        </mxCell>
        <mxCell id="znTaWi1RVM_R-WTAlIB3-1" value="Data,&amp;nbsp;Current, Previous" style="shape=parallelogram;perimeter=parallelogramPerimeter;whiteSpace=wrap;html=1;fixedSize=1;" vertex="1" parent="WIyWlLk6GJQsqaUBKTNV-1">
          <mxGeometry x="160" y="120" width="160" height="40" as="geometry" />
        </mxCell>
        <mxCell id="znTaWi1RVM_R-WTAlIB3-8" style="edgeStyle=orthogonalEdgeStyle;rounded=0;orthogonalLoop=1;jettySize=auto;html=1;entryX=0.5;entryY=0;entryDx=0;entryDy=0;" edge="1" parent="WIyWlLk6GJQsqaUBKTNV-1" source="znTaWi1RVM_R-WTAlIB3-3" target="znTaWi1RVM_R-WTAlIB3-7">
          <mxGeometry relative="1" as="geometry" />
        </mxCell>
        <mxCell id="znTaWi1RVM_R-WTAlIB3-3" value="Head = -1" style="rhombus;whiteSpace=wrap;html=1;" vertex="1" parent="WIyWlLk6GJQsqaUBKTNV-1">
          <mxGeometry x="160" y="200" width="160" height="40" as="geometry" />
        </mxCell>
        <mxCell id="znTaWi1RVM_R-WTAlIB3-7" value="Вывод&lt;div&gt;Список пуст.&lt;/div&gt;" style="shape=parallelogram;perimeter=parallelogramPerimeter;whiteSpace=wrap;html=1;fixedSize=1;" vertex="1" parent="WIyWlLk6GJQsqaUBKTNV-1">
          <mxGeometry x="160" y="280" width="160" height="40" as="geometry" />
        </mxCell>
        <mxCell id="znTaWi1RVM_R-WTAlIB3-9" value="Да" style="text;html=1;align=center;verticalAlign=middle;whiteSpace=wrap;rounded=0;" vertex="1" parent="WIyWlLk6GJQsqaUBKTNV-1">
          <mxGeometry x="230" y="240" width="60" height="30" as="geometry" />
        </mxCell>
        <mxCell id="znTaWi1RVM_R-WTAlIB3-10" value="" style="endArrow=none;html=1;rounded=0;exitX=1;exitY=0.5;exitDx=0;exitDy=0;" edge="1" parent="WIyWlLk6GJQsqaUBKTNV-1" source="znTaWi1RVM_R-WTAlIB3-3">
          <mxGeometry width="50" height="50" relative="1" as="geometry">
            <mxPoint x="320" y="480" as="sourcePoint" />
            <mxPoint x="440" y="220" as="targetPoint" />
          </mxGeometry>
        </mxCell>
        <mxCell id="znTaWi1RVM_R-WTAlIB3-14" style="edgeStyle=orthogonalEdgeStyle;rounded=0;orthogonalLoop=1;jettySize=auto;html=1;entryX=0.5;entryY=0;entryDx=0;entryDy=0;" edge="1" parent="WIyWlLk6GJQsqaUBKTNV-1" source="znTaWi1RVM_R-WTAlIB3-11" target="znTaWi1RVM_R-WTAlIB3-13">
          <mxGeometry relative="1" as="geometry" />
        </mxCell>
        <mxCell id="znTaWi1RVM_R-WTAlIB3-11" value="Current := Head" style="rounded=0;whiteSpace=wrap;html=1;" vertex="1" parent="WIyWlLk6GJQsqaUBKTNV-1">
          <mxGeometry x="360" y="280" width="160" height="40" as="geometry" />
        </mxCell>
        <mxCell id="znTaWi1RVM_R-WTAlIB3-12" value="" style="endArrow=classic;html=1;rounded=0;" edge="1" parent="WIyWlLk6GJQsqaUBKTNV-1" target="znTaWi1RVM_R-WTAlIB3-11">
          <mxGeometry width="50" height="50" relative="1" as="geometry">
            <mxPoint x="440" y="220" as="sourcePoint" />
            <mxPoint x="370" y="430" as="targetPoint" />
          </mxGeometry>
        </mxCell>
        <mxCell id="znTaWi1RVM_R-WTAlIB3-13" value="Previous := -1" style="rounded=0;whiteSpace=wrap;html=1;" vertex="1" parent="WIyWlLk6GJQsqaUBKTNV-1">
          <mxGeometry x="360" y="360" width="160" height="40" as="geometry" />
        </mxCell>
        <mxCell id="znTaWi1RVM_R-WTAlIB3-15" value="Нет" style="text;html=1;align=center;verticalAlign=middle;whiteSpace=wrap;rounded=0;" vertex="1" parent="WIyWlLk6GJQsqaUBKTNV-1">
          <mxGeometry x="300" y="190" width="60" height="30" as="geometry" />
        </mxCell>
        <mxCell id="znTaWi1RVM_R-WTAlIB3-20" style="edgeStyle=orthogonalEdgeStyle;rounded=0;orthogonalLoop=1;jettySize=auto;html=1;entryX=0.5;entryY=0;entryDx=0;entryDy=0;" edge="1" parent="WIyWlLk6GJQsqaUBKTNV-1" source="znTaWi1RVM_R-WTAlIB3-16" target="znTaWi1RVM_R-WTAlIB3-18">
          <mxGeometry relative="1" as="geometry" />
        </mxCell>
        <mxCell id="znTaWi1RVM_R-WTAlIB3-16" value="Цикл 1" style="strokeWidth=2;html=1;shape=mxgraph.flowchart.loop_limit;whiteSpace=wrap;" vertex="1" parent="WIyWlLk6GJQsqaUBKTNV-1">
          <mxGeometry x="360" y="440" width="160" height="40" as="geometry" />
        </mxCell>
        <mxCell id="znTaWi1RVM_R-WTAlIB3-17" style="edgeStyle=orthogonalEdgeStyle;rounded=0;orthogonalLoop=1;jettySize=auto;html=1;entryX=0.5;entryY=0;entryDx=0;entryDy=0;entryPerimeter=0;" edge="1" parent="WIyWlLk6GJQsqaUBKTNV-1" source="znTaWi1RVM_R-WTAlIB3-13" target="znTaWi1RVM_R-WTAlIB3-16">
          <mxGeometry relative="1" as="geometry" />
        </mxCell>
        <mxCell id="znTaWi1RVM_R-WTAlIB3-21" style="edgeStyle=orthogonalEdgeStyle;rounded=0;orthogonalLoop=1;jettySize=auto;html=1;entryX=0.5;entryY=0;entryDx=0;entryDy=0;" edge="1" parent="WIyWlLk6GJQsqaUBKTNV-1" source="znTaWi1RVM_R-WTAlIB3-18" target="znTaWi1RVM_R-WTAlIB3-19">
          <mxGeometry relative="1" as="geometry" />
        </mxCell>
        <mxCell id="znTaWi1RVM_R-WTAlIB3-18" value="Nodes[Current].Data = Data" style="rhombus;whiteSpace=wrap;html=1;" vertex="1" parent="WIyWlLk6GJQsqaUBKTNV-1">
          <mxGeometry x="360" y="520" width="160" height="40" as="geometry" />
        </mxCell>
        <mxCell id="znTaWi1RVM_R-WTAlIB3-24" style="edgeStyle=orthogonalEdgeStyle;rounded=0;orthogonalLoop=1;jettySize=auto;html=1;entryX=0.5;entryY=0;entryDx=0;entryDy=0;" edge="1" parent="WIyWlLk6GJQsqaUBKTNV-1" source="znTaWi1RVM_R-WTAlIB3-19" target="znTaWi1RVM_R-WTAlIB3-23">
          <mxGeometry relative="1" as="geometry" />
        </mxCell>
        <mxCell id="znTaWi1RVM_R-WTAlIB3-19" value="Previous = -1" style="rhombus;whiteSpace=wrap;html=1;" vertex="1" parent="WIyWlLk6GJQsqaUBKTNV-1">
          <mxGeometry x="360" y="600" width="160" height="40" as="geometry" />
        </mxCell>
        <mxCell id="znTaWi1RVM_R-WTAlIB3-22" value="Да" style="text;html=1;align=center;verticalAlign=middle;whiteSpace=wrap;rounded=0;" vertex="1" parent="WIyWlLk6GJQsqaUBKTNV-1">
          <mxGeometry x="430" y="560" width="60" height="30" as="geometry" />
        </mxCell>
        <mxCell id="znTaWi1RVM_R-WTAlIB3-26" style="edgeStyle=orthogonalEdgeStyle;rounded=0;orthogonalLoop=1;jettySize=auto;html=1;entryX=0.5;entryY=0;entryDx=0;entryDy=0;" edge="1" parent="WIyWlLk6GJQsqaUBKTNV-1" source="znTaWi1RVM_R-WTAlIB3-23" target="znTaWi1RVM_R-WTAlIB3-25">
          <mxGeometry relative="1" as="geometry" />
        </mxCell>
        <mxCell id="znTaWi1RVM_R-WTAlIB3-23" value="Nodes[Current].Next = Head" style="rhombus;whiteSpace=wrap;html=1;" vertex="1" parent="WIyWlLk6GJQsqaUBKTNV-1">
          <mxGeometry x="360" y="680" width="160" height="40" as="geometry" />
        </mxCell>
        <mxCell id="znTaWi1RVM_R-WTAlIB3-25" value="Head := -1" style="rounded=0;whiteSpace=wrap;html=1;" vertex="1" parent="WIyWlLk6GJQsqaUBKTNV-1">
          <mxGeometry x="360" y="760" width="160" height="40" as="geometry" />
        </mxCell>
        <mxCell id="znTaWi1RVM_R-WTAlIB3-27" value="Да" style="text;html=1;align=center;verticalAlign=middle;whiteSpace=wrap;rounded=0;" vertex="1" parent="WIyWlLk6GJQsqaUBKTNV-1">
          <mxGeometry x="430" y="640" width="60" height="30" as="geometry" />
        </mxCell>
        <mxCell id="znTaWi1RVM_R-WTAlIB3-28" value="Да" style="text;html=1;align=center;verticalAlign=middle;whiteSpace=wrap;rounded=0;" vertex="1" parent="WIyWlLk6GJQsqaUBKTNV-1">
          <mxGeometry x="430" y="720" width="60" height="30" as="geometry" />
        </mxCell>
        <mxCell id="znTaWi1RVM_R-WTAlIB3-33" style="edgeStyle=orthogonalEdgeStyle;rounded=0;orthogonalLoop=1;jettySize=auto;html=1;entryX=0.5;entryY=0;entryDx=0;entryDy=0;" edge="1" parent="WIyWlLk6GJQsqaUBKTNV-1" source="znTaWi1RVM_R-WTAlIB3-29" target="znTaWi1RVM_R-WTAlIB3-32">
          <mxGeometry relative="1" as="geometry" />
        </mxCell>
        <mxCell id="znTaWi1RVM_R-WTAlIB3-29" value="Head := Nodes[Current].Next" style="rounded=0;whiteSpace=wrap;html=1;" vertex="1" parent="WIyWlLk6GJQsqaUBKTNV-1">
          <mxGeometry x="560" y="760" width="160" height="40" as="geometry" />
        </mxCell>
        <mxCell id="znTaWi1RVM_R-WTAlIB3-30" value="" style="endArrow=none;html=1;rounded=0;exitX=1;exitY=0.5;exitDx=0;exitDy=0;" edge="1" parent="WIyWlLk6GJQsqaUBKTNV-1" source="znTaWi1RVM_R-WTAlIB3-23">
          <mxGeometry width="50" height="50" relative="1" as="geometry">
            <mxPoint x="480" y="580" as="sourcePoint" />
            <mxPoint x="640" y="700" as="targetPoint" />
          </mxGeometry>
        </mxCell>
        <mxCell id="znTaWi1RVM_R-WTAlIB3-31" value="" style="endArrow=classic;html=1;rounded=0;entryX=0.5;entryY=0;entryDx=0;entryDy=0;" edge="1" parent="WIyWlLk6GJQsqaUBKTNV-1" target="znTaWi1RVM_R-WTAlIB3-29">
          <mxGeometry width="50" height="50" relative="1" as="geometry">
            <mxPoint x="640" y="700" as="sourcePoint" />
            <mxPoint x="530" y="530" as="targetPoint" />
          </mxGeometry>
        </mxCell>
        <mxCell id="znTaWi1RVM_R-WTAlIB3-32" value="Previous := Head" style="rounded=0;whiteSpace=wrap;html=1;" vertex="1" parent="WIyWlLk6GJQsqaUBKTNV-1">
          <mxGeometry x="560" y="840" width="160" height="40" as="geometry" />
        </mxCell>
        <mxCell id="znTaWi1RVM_R-WTAlIB3-34" value="Нет" style="text;html=1;align=center;verticalAlign=middle;whiteSpace=wrap;rounded=0;" vertex="1" parent="WIyWlLk6GJQsqaUBKTNV-1">
          <mxGeometry x="510" y="670" width="60" height="30" as="geometry" />
        </mxCell>
        <mxCell id="znTaWi1RVM_R-WTAlIB3-38" style="edgeStyle=orthogonalEdgeStyle;rounded=0;orthogonalLoop=1;jettySize=auto;html=1;entryX=0.5;entryY=0;entryDx=0;entryDy=0;" edge="1" parent="WIyWlLk6GJQsqaUBKTNV-1" source="znTaWi1RVM_R-WTAlIB3-35" target="znTaWi1RVM_R-WTAlIB3-36">
          <mxGeometry relative="1" as="geometry" />
        </mxCell>
        <mxCell id="znTaWi1RVM_R-WTAlIB3-35" value="Цикл 2&lt;div&gt;Nodes[Previous].Next &amp;lt;&amp;gt; Current&lt;/div&gt;" style="strokeWidth=2;html=1;shape=mxgraph.flowchart.loop_limit;whiteSpace=wrap;" vertex="1" parent="WIyWlLk6GJQsqaUBKTNV-1">
          <mxGeometry x="560" y="920" width="160" height="40" as="geometry" />
        </mxCell>
        <mxCell id="znTaWi1RVM_R-WTAlIB3-36" value="Previous := Nodes[Previous].Next" style="rounded=0;whiteSpace=wrap;html=1;" vertex="1" parent="WIyWlLk6GJQsqaUBKTNV-1">
          <mxGeometry x="560" y="1000" width="160" height="40" as="geometry" />
        </mxCell>
        <mxCell id="znTaWi1RVM_R-WTAlIB3-47" style="edgeStyle=orthogonalEdgeStyle;rounded=0;orthogonalLoop=1;jettySize=auto;html=1;entryX=0.5;entryY=0;entryDx=0;entryDy=0;" edge="1" parent="WIyWlLk6GJQsqaUBKTNV-1" source="znTaWi1RVM_R-WTAlIB3-37" target="znTaWi1RVM_R-WTAlIB3-41">
          <mxGeometry relative="1" as="geometry" />
        </mxCell>
        <mxCell id="znTaWi1RVM_R-WTAlIB3-37" value="Цикл 2" style="strokeWidth=2;html=1;shape=mxgraph.flowchart.loop_limit;whiteSpace=wrap;direction=west;" vertex="1" parent="WIyWlLk6GJQsqaUBKTNV-1">
          <mxGeometry x="560" y="1080" width="160" height="40" as="geometry" />
        </mxCell>
        <mxCell id="znTaWi1RVM_R-WTAlIB3-39" style="edgeStyle=orthogonalEdgeStyle;rounded=0;orthogonalLoop=1;jettySize=auto;html=1;entryX=0.5;entryY=1;entryDx=0;entryDy=0;entryPerimeter=0;" edge="1" parent="WIyWlLk6GJQsqaUBKTNV-1" source="znTaWi1RVM_R-WTAlIB3-36" target="znTaWi1RVM_R-WTAlIB3-37">
          <mxGeometry relative="1" as="geometry" />
        </mxCell>
        <mxCell id="znTaWi1RVM_R-WTAlIB3-40" style="edgeStyle=orthogonalEdgeStyle;rounded=0;orthogonalLoop=1;jettySize=auto;html=1;entryX=0.5;entryY=0;entryDx=0;entryDy=0;entryPerimeter=0;" edge="1" parent="WIyWlLk6GJQsqaUBKTNV-1" source="znTaWi1RVM_R-WTAlIB3-32" target="znTaWi1RVM_R-WTAlIB3-35">
          <mxGeometry relative="1" as="geometry" />
        </mxCell>
        <mxCell id="znTaWi1RVM_R-WTAlIB3-71" style="edgeStyle=orthogonalEdgeStyle;rounded=0;orthogonalLoop=1;jettySize=auto;html=1;entryX=0.5;entryY=0;entryDx=0;entryDy=0;" edge="1" parent="WIyWlLk6GJQsqaUBKTNV-1" source="znTaWi1RVM_R-WTAlIB3-41" target="znTaWi1RVM_R-WTAlIB3-70">
          <mxGeometry relative="1" as="geometry" />
        </mxCell>
        <mxCell id="znTaWi1RVM_R-WTAlIB3-41" value="Nodes[Previous].Next := Head" style="rounded=0;whiteSpace=wrap;html=1;" vertex="1" parent="WIyWlLk6GJQsqaUBKTNV-1">
          <mxGeometry x="560" y="1160" width="160" height="40" as="geometry" />
        </mxCell>
        <mxCell id="znTaWi1RVM_R-WTAlIB3-42" value="" style="endArrow=none;html=1;rounded=0;exitX=1;exitY=0.5;exitDx=0;exitDy=0;" edge="1" parent="WIyWlLk6GJQsqaUBKTNV-1" source="znTaWi1RVM_R-WTAlIB3-19">
          <mxGeometry width="50" height="50" relative="1" as="geometry">
            <mxPoint x="650" y="670" as="sourcePoint" />
            <mxPoint x="840" y="620" as="targetPoint" />
          </mxGeometry>
        </mxCell>
        <mxCell id="znTaWi1RVM_R-WTAlIB3-44" value="Nodes[Previous].Next := Nodes[Current].Next" style="rounded=0;whiteSpace=wrap;html=1;" vertex="1" parent="WIyWlLk6GJQsqaUBKTNV-1">
          <mxGeometry x="760" y="760" width="160" height="40" as="geometry" />
        </mxCell>
        <mxCell id="znTaWi1RVM_R-WTAlIB3-45" value="" style="endArrow=classic;html=1;rounded=0;entryX=0.5;entryY=0;entryDx=0;entryDy=0;" edge="1" parent="WIyWlLk6GJQsqaUBKTNV-1" target="znTaWi1RVM_R-WTAlIB3-44">
          <mxGeometry width="50" height="50" relative="1" as="geometry">
            <mxPoint x="840" y="620" as="sourcePoint" />
            <mxPoint x="790" y="640" as="targetPoint" />
          </mxGeometry>
        </mxCell>
        <mxCell id="znTaWi1RVM_R-WTAlIB3-46" value="Нет" style="text;html=1;align=center;verticalAlign=middle;whiteSpace=wrap;rounded=0;" vertex="1" parent="WIyWlLk6GJQsqaUBKTNV-1">
          <mxGeometry x="510" y="590" width="60" height="30" as="geometry" />
        </mxCell>
        <mxCell id="znTaWi1RVM_R-WTAlIB3-48" value="FreeNode(Current)" style="rounded=0;whiteSpace=wrap;html=1;" vertex="1" parent="WIyWlLk6GJQsqaUBKTNV-1">
          <mxGeometry x="960" y="760" width="160" height="40" as="geometry" />
        </mxCell>
        <mxCell id="znTaWi1RVM_R-WTAlIB3-50" value="" style="endArrow=none;html=1;rounded=0;exitX=1;exitY=0.5;exitDx=0;exitDy=0;" edge="1" parent="WIyWlLk6GJQsqaUBKTNV-1" source="znTaWi1RVM_R-WTAlIB3-18">
          <mxGeometry width="50" height="50" relative="1" as="geometry">
            <mxPoint x="660" y="690" as="sourcePoint" />
            <mxPoint x="1040" y="540" as="targetPoint" />
          </mxGeometry>
        </mxCell>
        <mxCell id="znTaWi1RVM_R-WTAlIB3-51" value="" style="endArrow=classic;html=1;rounded=0;entryX=0.5;entryY=0;entryDx=0;entryDy=0;" edge="1" parent="WIyWlLk6GJQsqaUBKTNV-1" target="znTaWi1RVM_R-WTAlIB3-48">
          <mxGeometry width="50" height="50" relative="1" as="geometry">
            <mxPoint x="1040" y="540" as="sourcePoint" />
            <mxPoint x="710" y="640" as="targetPoint" />
          </mxGeometry>
        </mxCell>
        <mxCell id="znTaWi1RVM_R-WTAlIB3-52" value="Нет" style="text;html=1;align=center;verticalAlign=middle;whiteSpace=wrap;rounded=0;" vertex="1" parent="WIyWlLk6GJQsqaUBKTNV-1">
          <mxGeometry x="510" y="510" width="60" height="30" as="geometry" />
        </mxCell>
        <mxCell id="znTaWi1RVM_R-WTAlIB3-54" value="" style="endArrow=none;html=1;rounded=0;exitX=0.5;exitY=1;exitDx=0;exitDy=0;" edge="1" parent="WIyWlLk6GJQsqaUBKTNV-1" source="znTaWi1RVM_R-WTAlIB3-25">
          <mxGeometry width="50" height="50" relative="1" as="geometry">
            <mxPoint x="650" y="860" as="sourcePoint" />
            <mxPoint x="440" y="1220" as="targetPoint" />
          </mxGeometry>
        </mxCell>
        <mxCell id="znTaWi1RVM_R-WTAlIB3-55" value="" style="endArrow=none;html=1;rounded=0;entryX=0.5;entryY=1;entryDx=0;entryDy=0;" edge="1" parent="WIyWlLk6GJQsqaUBKTNV-1" target="znTaWi1RVM_R-WTAlIB3-48">
          <mxGeometry width="50" height="50" relative="1" as="geometry">
            <mxPoint x="1040" y="1220" as="sourcePoint" />
            <mxPoint x="1040" y="880" as="targetPoint" />
          </mxGeometry>
        </mxCell>
        <mxCell id="znTaWi1RVM_R-WTAlIB3-56" value="" style="endArrow=none;html=1;rounded=0;" edge="1" parent="WIyWlLk6GJQsqaUBKTNV-1">
          <mxGeometry width="50" height="50" relative="1" as="geometry">
            <mxPoint x="440" y="1220" as="sourcePoint" />
            <mxPoint x="1040" y="1220" as="targetPoint" />
          </mxGeometry>
        </mxCell>
        <mxCell id="znTaWi1RVM_R-WTAlIB3-60" style="edgeStyle=orthogonalEdgeStyle;rounded=0;orthogonalLoop=1;jettySize=auto;html=1;entryX=0.5;entryY=0;entryDx=0;entryDy=0;" edge="1" parent="WIyWlLk6GJQsqaUBKTNV-1" source="znTaWi1RVM_R-WTAlIB3-57" target="znTaWi1RVM_R-WTAlIB3-58">
          <mxGeometry relative="1" as="geometry" />
        </mxCell>
        <mxCell id="znTaWi1RVM_R-WTAlIB3-57" value="Previous := Current" style="rounded=0;whiteSpace=wrap;html=1;" vertex="1" parent="WIyWlLk6GJQsqaUBKTNV-1">
          <mxGeometry x="560" y="1320" width="160" height="40" as="geometry" />
        </mxCell>
        <mxCell id="znTaWi1RVM_R-WTAlIB3-58" value="Current := Nodes[Current].Next" style="rounded=0;whiteSpace=wrap;html=1;" vertex="1" parent="WIyWlLk6GJQsqaUBKTNV-1">
          <mxGeometry x="560" y="1400" width="160" height="40" as="geometry" />
        </mxCell>
        <mxCell id="znTaWi1RVM_R-WTAlIB3-62" value="" style="endArrow=none;html=1;rounded=0;entryX=0.5;entryY=1;entryDx=0;entryDy=0;" edge="1" parent="WIyWlLk6GJQsqaUBKTNV-1" target="znTaWi1RVM_R-WTAlIB3-44">
          <mxGeometry width="50" height="50" relative="1" as="geometry">
            <mxPoint x="840" y="1220" as="sourcePoint" />
            <mxPoint x="790" y="940" as="targetPoint" />
          </mxGeometry>
        </mxCell>
        <mxCell id="znTaWi1RVM_R-WTAlIB3-73" style="edgeStyle=orthogonalEdgeStyle;rounded=0;orthogonalLoop=1;jettySize=auto;html=1;entryX=0.5;entryY=0;entryDx=0;entryDy=0;" edge="1" parent="WIyWlLk6GJQsqaUBKTNV-1" source="znTaWi1RVM_R-WTAlIB3-63" target="znTaWi1RVM_R-WTAlIB3-69">
          <mxGeometry relative="1" as="geometry" />
        </mxCell>
        <mxCell id="znTaWi1RVM_R-WTAlIB3-63" value="Цикл 1&lt;div&gt;Current = Head&lt;/div&gt;" style="strokeWidth=2;html=1;shape=mxgraph.flowchart.loop_limit;whiteSpace=wrap;direction=west;" vertex="1" parent="WIyWlLk6GJQsqaUBKTNV-1">
          <mxGeometry x="560" y="1480" width="160" height="40" as="geometry" />
        </mxCell>
        <mxCell id="znTaWi1RVM_R-WTAlIB3-64" style="edgeStyle=orthogonalEdgeStyle;rounded=0;orthogonalLoop=1;jettySize=auto;html=1;entryX=0.5;entryY=1;entryDx=0;entryDy=0;entryPerimeter=0;" edge="1" parent="WIyWlLk6GJQsqaUBKTNV-1" source="znTaWi1RVM_R-WTAlIB3-58" target="znTaWi1RVM_R-WTAlIB3-63">
          <mxGeometry relative="1" as="geometry" />
        </mxCell>
        <mxCell id="znTaWi1RVM_R-WTAlIB3-65" value="DeleteElement&lt;div&gt;Конец&lt;/div&gt;" style="strokeWidth=2;html=1;shape=mxgraph.flowchart.terminator;whiteSpace=wrap;" vertex="1" parent="WIyWlLk6GJQsqaUBKTNV-1">
          <mxGeometry x="160" y="1640" width="160" height="40" as="geometry" />
        </mxCell>
        <mxCell id="znTaWi1RVM_R-WTAlIB3-67" style="edgeStyle=orthogonalEdgeStyle;rounded=0;orthogonalLoop=1;jettySize=auto;html=1;entryX=0.5;entryY=0;entryDx=0;entryDy=0;entryPerimeter=0;" edge="1" parent="WIyWlLk6GJQsqaUBKTNV-1" source="znTaWi1RVM_R-WTAlIB3-7" target="znTaWi1RVM_R-WTAlIB3-65">
          <mxGeometry relative="1" as="geometry" />
        </mxCell>
        <mxCell id="znTaWi1RVM_R-WTAlIB3-68" value="Exit" style="text;html=1;align=center;verticalAlign=middle;whiteSpace=wrap;rounded=0;" vertex="1" parent="WIyWlLk6GJQsqaUBKTNV-1">
          <mxGeometry x="230" y="320" width="60" height="30" as="geometry" />
        </mxCell>
        <mxCell id="znTaWi1RVM_R-WTAlIB3-69" value="&lt;div&gt;&lt;br&gt;&lt;/div&gt;Вывод&lt;div&gt;&#39;Элемент &#39;, Data, &#39; не найден в списке.&#39;&lt;br&gt;&lt;div&gt;&lt;span style=&quot;color: rgba(0, 0, 0, 0); font-family: monospace; font-size: 0px; text-align: start; text-wrap-mode: nowrap;&quot;&gt;%3CmxGraphModel%3E%3Croot%3E%3CmxCell%20id%3D%220%22%2F%3E%3CmxCell%20id%3D%221%22%20parent%3D%220%22%2F%3E%3CmxCell%20id%3D%222%22%20value%3D%22%22%20style%3D%22shape%3Dparallelogram%3Bperimeter%3DparallelogramPerimeter%3BwhiteSpace%3Dwrap%3Bhtml%3D1%3BfixedSize%3D1%3B%22%20vertex%3D%221%22%20parent%3D%221%22%3E%3CmxGeometry%20x%3D%22560%22%20y%3D%221560%22%20width%3D%22160%22%20height%3D%2240%22%20as%3D%22geometry%22%2F%3E%3C%2FmxCell%3E%3C%2Froot%3E%3C%2FmxGraphModel%3E&lt;/span&gt;&lt;span style=&quot;color: rgba(0, 0, 0, 0); font-family: monospace; font-size: 0px; text-align: start; text-wrap-mode: nowrap; background-color: transparent;&quot;&gt;%3CmxGraphModel%3E%3Croot%3E%3CmxCell%20id%3D%220%22%2F%3E%3CmxCell%20id%3D%221%22%20parent%3D%220%22%2F%3E%3CmxCell%20id%3D%222%22%20value%3D%22%22%20style%3D%22shape%3Dparallelogram%3Bperimeter%3DparallelogramPerimeter%3BwhiteSpace%3Dwrap%3Bhtml%3D1%3BfixedSize%3D1%3B%22%20vertex%3D%221%22%20parent%3D%221%22%3E%3CmxGeometry%20x%3D%22560%22%20y%3D%221560%22%20width%3D%22160%22%20height%3D%2240%22%20as%3D%22geometry%22%2F%3E%3C%2FmxCell%3E%3C%2Froot%3E%3C%2FmxGraphModel%3E&lt;/span&gt;&lt;/div&gt;&lt;/div&gt;" style="shape=parallelogram;perimeter=parallelogramPerimeter;whiteSpace=wrap;html=1;fixedSize=1;" vertex="1" parent="WIyWlLk6GJQsqaUBKTNV-1">
          <mxGeometry x="560" y="1560" width="160" height="40" as="geometry" />
        </mxCell>
        <mxCell id="znTaWi1RVM_R-WTAlIB3-72" style="edgeStyle=orthogonalEdgeStyle;rounded=0;orthogonalLoop=1;jettySize=auto;html=1;entryX=0.5;entryY=0;entryDx=0;entryDy=0;" edge="1" parent="WIyWlLk6GJQsqaUBKTNV-1" source="znTaWi1RVM_R-WTAlIB3-70" target="znTaWi1RVM_R-WTAlIB3-57">
          <mxGeometry relative="1" as="geometry" />
        </mxCell>
        <mxCell id="znTaWi1RVM_R-WTAlIB3-70" value="Вывод&lt;div&gt;&#39;Элемент &#39;, Data, &#39; удален из списка.&#39;&lt;/div&gt;" style="shape=parallelogram;perimeter=parallelogramPerimeter;whiteSpace=wrap;html=1;fixedSize=1;" vertex="1" parent="WIyWlLk6GJQsqaUBKTNV-1">
          <mxGeometry x="560" y="1240" width="160" height="40" as="geometry" />
        </mxCell>
        <mxCell id="znTaWi1RVM_R-WTAlIB3-74" value="" style="endArrow=none;html=1;rounded=0;entryX=0.5;entryY=1;entryDx=0;entryDy=0;" edge="1" parent="WIyWlLk6GJQsqaUBKTNV-1" target="znTaWi1RVM_R-WTAlIB3-69">
          <mxGeometry width="50" height="50" relative="1" as="geometry">
            <mxPoint x="640" y="1620" as="sourcePoint" />
            <mxPoint x="670" y="1120" as="targetPoint" />
          </mxGeometry>
        </mxCell>
        <mxCell id="znTaWi1RVM_R-WTAlIB3-75" value="" style="endArrow=none;html=1;rounded=0;" edge="1" parent="WIyWlLk6GJQsqaUBKTNV-1">
          <mxGeometry width="50" height="50" relative="1" as="geometry">
            <mxPoint x="240" y="1620" as="sourcePoint" />
            <mxPoint x="640" y="1620" as="targetPoint" />
          </mxGeometry>
        </mxCell>
      </root>
    </mxGraphModel>
  </diagram>
</mxfile>
